<svg width="12" height="10" viewBox="0 0 12 10" fill="none" xmlns="http://www.w3.org/2000/svg">
<path d="M11.5623 3.46318C11.667 4.36159 11.5484 5.27193 11.2172 6.11358C10.8859 6.95522 10.3522 7.70218 9.66336 8.2883C8.97448 8.87442 8.15169 9.2816 7.26786 9.47378C6.38403 9.66596 5.46645 9.6372 4.59639 9.39005C3.72633 9.1429 2.93065 8.68499 2.27984 8.05688C1.62902 7.42877 1.14315 6.64985 0.865268 5.78911C0.587386 4.92838 0.526069 4.01239 0.686747 3.1223C0.847426 2.23221 1.22514 1.39548 1.78643 0.686227L4.29988 2.67534C4.0657 2.97125 3.90811 3.32035 3.84107 3.69171C3.77403 4.06308 3.79961 4.44524 3.91555 4.80435C4.03149 5.16347 4.2342 5.48845 4.50573 5.75051C4.77727 6.01256 5.10924 6.20361 5.47224 6.30673C5.83524 6.40984 6.21808 6.42184 6.58682 6.34166C6.95557 6.26148 7.29886 6.0916 7.58627 5.84706C7.87368 5.60252 8.09634 5.29087 8.23454 4.93973C8.37274 4.58858 8.42221 4.20877 8.37856 3.83393L11.5623 3.46318Z" fill="white"/>
</svg>
